# xmcd CD database file
#
# Track frame offsets:
#	150
#	12867
#	25052
#	41834
#
# Disc length: 762 seconds
#
# Revision: 0
# Processed by: cddbd v1.4PL0 Copyright (c) Steve Scherf et al.
# Submitted via: CDex 1.50Beta1
#
DISCID=2602f804
DTITLE=Jim Belushi And The Sacred Hearts - 36-22-36 {4 cut promo}
DYEAR=1998
DGENRE=Blues
TTITLE0=If You Don't Leave Me Alone (I'm Gonna Find Somebody That Will)
TTITLE1=36-22-36
TTITLE2=The Chicken And The Hawk
TTITLE3=Smoke 'N Blues
EXTD=YEAR: 1998
EXTT0=
EXTT1=
EXTT2=
EXTT3=
PLAYORDER=
